<svg version="1.1" baseProfile="full" viewBox="0 0 80 80" xmlns="http://www.w3.org/2000/svg">
<circle cx="40.51995501343055" cy="40.93275197873524" r="0.020566023726890925" fill-opacity="0" stroke="black" stroke-width="0.01"/>
<circle cx="40.97383333035855" cy="40.35213854029514" r="0.033727627563772324" fill-opacity="0" stroke="black" stroke-width="0.01"/>
<circle cx="40.087387369550285" cy="40.26603049027506" r="0.021342813626486237" fill-opacity="0" stroke="black" stroke-width="0.01"/>
<circle cx="40.201372691569944" cy="40.45897640473579" r="0.06621981953111719" fill-opacity="0" stroke="black" stroke-width="0.01"/>
<circle cx="40.2914575903839" cy="40.51650880314015" r="0.04609803740032159" fill-opacity="0" stroke="black" stroke-width="0.01"/>
<circle cx="40.99640572421237" cy="40.76847461023972" r="0.0685885308313927" fill-opacity="0" stroke="black" stroke-width="0.01"/>
<circle cx="40.22565053312253" cy="40.984735873862945" r="0.07849610587359612" fill-opacity="0" stroke="black" stroke-width="0.01"/>
<circle cx="40.0876536817579" cy="40.94222920088497" r="0.06388113226552342" fill-opacity="0" stroke="black" stroke-width="0.01"/>
<circle cx="40.90755229485905" cy="40.44031999156175" r="0.03577789966078304" fill-opacity="0" stroke="black" stroke-width="0.01"/>
<circle cx="40.64407258846935" cy="40.54916514181757" r="0.019123008983602433" fill-opacity="0" stroke="black" stroke-width="0.01"/>
<circle cx="40.72897658689452" cy="40.624298600494654" r="0.0030496241085401724" fill-opacity="0" stroke="black" stroke-width="0.01"/>
<circle cx="40.872495595333454" cy="40.966253045137" r="0.03498016903099789" fill-opacity="0" stroke="black" stroke-width="0.01"/>
<circle cx="40.38122667747097" cy="40.87007694122742" r="0.06475850617523264" fill-opacity="0" stroke="black" stroke-width="0.01"/>
<circle cx="40.42513965862646" cy="40.82532251434209" r="0.0727289102287134" fill-opacity="0" stroke="black" stroke-width="0.01"/>
<circle cx="40.37855720841382" cy="40.28145793559582" r="0.012291913924649523" fill-opacity="0" stroke="black" stroke-width="0.01"/>
<circle cx="40.752096023612054" cy="40.835798862138915" r="0.06626338774234987" fill-opacity="0" stroke="black" stroke-width="0.01"/>
<circle cx="40.76741155573611" cy="40.549035916008066" r="0.01829528235806819" fill-opacity="0" stroke="black" stroke-width="0.01"/>
<circle cx="40.61433064299825" cy="40.35184504887444" r="0.03688297151941006" fill-opacity="0" stroke="black" stroke-width="0.01"/>
<circle cx="40.54447910849992" cy="40.896144966577715" r="0.01261027898704521" fill-opacity="0" stroke="black" stroke-width="0.01"/>
<circle cx="40.15900224731571" cy="40.50339581302981" r="0.008875850209252368" fill-opacity="0" stroke="black" stroke-width="0.01"/>
<circle cx="40.329141529819275" cy="40.79165837852815" r="0.09733918937294514" fill-opacity="0" stroke="black" stroke-width="0.01"/>
<circle cx="40.98874006659825" cy="40.38060021385823" r="0.07448392049946476" fill-opacity="0" stroke="black" stroke-width="0.01"/>
<circle cx="40.37540577431187" cy="40.4209056583238" r="0.028753686311546203" fill-opacity="0" stroke="black" stroke-width="0.01"/>
<circle cx="40.3000489476923" cy="40.5054950196738" r="0.02262655643287116" fill-opacity="0" stroke="black" stroke-width="0.01"/>
<circle cx="40.15917872649278" cy="40.35599093109904" r="0.020877920239075844" fill-opacity="0" stroke="black" stroke-width="0.01"/>
<circle cx="40.22061018370228" cy="40.31887498974851" r="0.023488583506110827" fill-opacity="0" stroke="black" stroke-width="0.01"/>
<circle cx="40.07562599372115" cy="40.919304124782826" r="0.04916199408209541" fill-opacity="0" stroke="black" stroke-width="0.01"/>
<circle cx="40.564308889583344" cy="40.14120075354867" r="0.04446365993161634" fill-opacity="0" stroke="black" stroke-width="0.01"/>
<circle cx="40.24087006639532" cy="40.522548406334685" r="0.08407954503930465" fill-opacity="0" stroke="black" stroke-width="0.01"/>
<circle cx="40.99742650298093" cy="40.33865620419963" r="0.04578088020471206" fill-opacity="0" stroke="black" stroke-width="0.01"/>
<circle cx="40.08544857028307" cy="40.18266161322874" r="0.04638528264887573" fill-opacity="0" stroke="black" stroke-width="0.01"/>
<circle cx="40.45274111471858" cy="40.720250135327205" r="0.024119401783385664" fill-opacity="0" stroke="black" stroke-width="0.01"/>
<circle cx="40.70004129696331" cy="40.974475285511126" r="0.08503743373330482" fill-opacity="0" stroke="black" stroke-width="0.01"/>
<circle cx="40.57946454461342" cy="40.876231655140046" r="0.08602568049473093" fill-opacity="0" stroke="black" stroke-width="0.01"/>
<circle cx="40.6110846163146" cy="40.92248206482932" r="0.0004596220800803241" fill-opacity="0" stroke="black" stroke-width="0.01"/>
<circle cx="40.47209921452669" cy="40.91399231461568" r="0.05289909133008106" fill-opacity="0" stroke="black" stroke-width="0.01"/>
<circle cx="40.41356708424778" cy="40.29302763842435" r="0.009671836698743753" fill-opacity="0" stroke="black" stroke-width="0.01"/>
<circle cx="40.796997995341556" cy="40.72509971564472" r="0.04252818933059582" fill-opacity="0" stroke="black" stroke-width="0.01"/>
<circle cx="40.221563239503965" cy="40.619439961659154" r="0.04606971340528945" fill-opacity="0" stroke="black" stroke-width="0.01"/>
<circle cx="40.15178864187137" cy="40.51793774557162" r="0.06251769997935405" fill-opacity="0" stroke="black" stroke-width="0.01"/>
<circle cx="40.393790002288675" cy="40.77862097977903" r="0.03349912055156795" fill-opacity="0" stroke="black" stroke-width="0.01"/>
<circle cx="40.92690179049242" cy="40.35367304342864" r="0.03525491975324362" fill-opacity="0" stroke="black" stroke-width="0.01"/>
<circle cx="40.95205305729336" cy="40.27639656586432" r="0.03517743993200403" fill-opacity="0" stroke="black" stroke-width="0.01"/>
<circle cx="40.38487917740081" cy="40.386266900080834" r="0.0990488796647457" fill-opacity="0" stroke="black" stroke-width="0.01"/>
<circle cx="40.88480970526774" cy="40.57980973379316" r="0.018705395719413678" fill-opacity="0" stroke="black" stroke-width="0.01"/>
<circle cx="40.53630555879026" cy="40.91280641332701" r="0.09333504096578056" fill-opacity="0" stroke="black" stroke-width="0.01"/>
<circle cx="40.23366830345019" cy="40.804851570892524" r="0.06714659285215151" fill-opacity="0" stroke="black" stroke-width="0.01"/>
<circle cx="40.05453561936596" cy="40.08045571060448" r="0.07244246725376617" fill-opacity="0" stroke="black" stroke-width="0.01"/>
<circle cx="40.02137246423081" cy="40.92218602295233" r="0.09099606080250304" fill-opacity="0" stroke="black" stroke-width="0.01"/>
<circle cx="40.44752833423808" cy="40.99600189978091" r="0.049120241341348306" fill-opacity="0" stroke="black" stroke-width="0.01"/>
<circle cx="40.717635639212084" cy="40.44605116566344" r="0.07223465451384564" fill-opacity="0" stroke="black" stroke-width="0.01"/>
<circle cx="40.81512900313009" cy="40.26564210507674" r="0.07762137920232784" fill-opacity="0" stroke="black" stroke-width="0.01"/>
<circle cx="40.33574672982499" cy="40.08610866705939" r="0.09320376605468482" fill-opacity="0" stroke="black" stroke-width="0.01"/>
<circle cx="40.02141643582806" cy="40.990222074411285" r="0.0939565959909739" fill-opacity="0" stroke="black" stroke-width="0.01"/>
<circle cx="40.86278493371491" cy="40.7086438977286" r="0.06477469026653158" fill-opacity="0" stroke="black" stroke-width="0.01"/>
<circle cx="40.59388802604196" cy="40.16353277285026" r="0.06446028503118244" fill-opacity="0" stroke="black" stroke-width="0.01"/>
<circle cx="40.861781564730066" cy="40.762985660398655" r="0.06858704415087623" fill-opacity="0" stroke="black" stroke-width="0.01"/>
<circle cx="40.82728958783577" cy="40.25465843103021" r="0.0905940983768915" fill-opacity="0" stroke="black" stroke-width="0.01"/>
<circle cx="40.12326116934103" cy="40.58866841688" r="0.029021630417482736" fill-opacity="0" stroke="black" stroke-width="0.01"/>
<circle cx="40.817586410555165" cy="40.91122618106334" r="0.08103331417832318" fill-opacity="0" stroke="black" stroke-width="0.01"/>
<circle cx="40.37915534801656" cy="40.869590683256874" r="0.07578385846553326" fill-opacity="0" stroke="black" stroke-width="0.01"/>
<circle cx="40.68327383050914" cy="40.48900320694598" r="0.09342488440139046" fill-opacity="0" stroke="black" stroke-width="0.01"/>
<circle cx="40.051546191395865" cy="40.53971902134351" r="0.024682333614481945" fill-opacity="0" stroke="black" stroke-width="0.01"/>
<circle cx="40.274208463035535" cy="40.75379140883643" r="0.0745578031579163" fill-opacity="0" stroke="black" stroke-width="0.01"/>
<circle cx="40.47940470212575" cy="40.240787632698556" r="0.04032348738579773" fill-opacity="0" stroke="black" stroke-width="0.01"/>
<circle cx="40.14535486564019" cy="40.42756070137898" r="0.024624761902411564" fill-opacity="0" stroke="black" stroke-width="0.01"/>
<circle cx="40.69430384011894" cy="40.91891300910076" r="0.09443499927599436" fill-opacity="0" stroke="black" stroke-width="0.01"/>
<circle cx="40.78537159777972" cy="40.934783022317454" r="0.046789700823482994" fill-opacity="0" stroke="black" stroke-width="0.01"/>
<circle cx="40.322733077122685" cy="40.972979276570875" r="0.012275423938665387" fill-opacity="0" stroke="black" stroke-width="0.01"/>
<circle cx="40.4515070081881" cy="40.933006014172356" r="0.06705469775082894" fill-opacity="0" stroke="black" stroke-width="0.01"/>
<circle cx="40.619335778930925" cy="40.9092202531064" r="0.04373946938548066" fill-opacity="0" stroke="black" stroke-width="0.01"/>
<circle cx="40.62195391235618" cy="40.18235275111437" r="0.010666390988678687" fill-opacity="0" stroke="black" stroke-width="0.01"/>
<circle cx="40.367982375320196" cy="40.111755629933725" r="0.06746862703528005" fill-opacity="0" stroke="black" stroke-width="0.01"/>
<circle cx="40.74305211229248" cy="40.7368820824974" r="0.06722445495576482" fill-opacity="0" stroke="black" stroke-width="0.01"/>
<circle cx="40.68514358279313" cy="40.91563751897577" r="0.05577670390224673" fill-opacity="0" stroke="black" stroke-width="0.01"/>
<circle cx="40.46525714094368" cy="40.547345228598886" r="0.05751575399226438" fill-opacity="0" stroke="black" stroke-width="0.01"/>
<circle cx="40.109447438911225" cy="40.94028039202368" r="0.08010532335986055" fill-opacity="0" stroke="black" stroke-width="0.01"/>
<circle cx="40.422792879233704" cy="40.307934243470434" r="0.0458195023668089" fill-opacity="0" stroke="black" stroke-width="0.01"/>
<circle cx="40.809126458929995" cy="40.73339152503161" r="0.07126900575776828" fill-opacity="0" stroke="black" stroke-width="0.01"/>
<circle cx="40.491449022501854" cy="40.048025353725045" r="0.0743565694331234" fill-opacity="0" stroke="black" stroke-width="0.01"/>
<circle cx="40.254253011850075" cy="40.72838529561704" r="0.07361987116301537" fill-opacity="0" stroke="black" stroke-width="0.01"/>
<circle cx="40.732514630786646" cy="40.153219954839855" r="0.008814560763473056" fill-opacity="0" stroke="black" stroke-width="0.01"/>
<circle cx="40.77254176825058" cy="40.32070622235531" r="0.09767761217495773" fill-opacity="0" stroke="black" stroke-width="0.01"/>
<circle cx="40.80223529388696" cy="40.1810722943586" r="0.022406213446088032" fill-opacity="0" stroke="black" stroke-width="0.01"/>
<circle cx="40.16534793698972" cy="40.774827100955" r="0.015653699593179304" fill-opacity="0" stroke="black" stroke-width="0.01"/>
<circle cx="40.89896145436679" cy="40.42200931605988" r="0.06519195620642709" fill-opacity="0" stroke="black" stroke-width="0.01"/>
<circle cx="40.86439656143164" cy="40.305014707967715" r="0.006335436768194636" fill-opacity="0" stroke="black" stroke-width="0.01"/>
<circle cx="40.70369689447323" cy="40.707002066800186" r="0.05846573559400579" fill-opacity="0" stroke="black" stroke-width="0.01"/>
<circle cx="40.58227943813361" cy="40.46665383297558" r="0.063364529201733" fill-opacity="0" stroke="black" stroke-width="0.01"/>
<circle cx="40.01298125389401" cy="40.39826776322819" r="0.013628059731363197" fill-opacity="0" stroke="black" stroke-width="0.01"/>
<circle cx="40.493685051515406" cy="40.14552615514916" r="0.07724055635366997" fill-opacity="0" stroke="black" stroke-width="0.01"/>
<circle cx="40.895347512259534" cy="40.29413962906565" r="0.05960844573250042" fill-opacity="0" stroke="black" stroke-width="0.01"/>
<circle cx="40.45977606617416" cy="40.452359710774644" r="0.02340856463485659" fill-opacity="0" stroke="black" stroke-width="0.01"/>
<circle cx="40.12299913305639" cy="40.465482821298664" r="0.08677891981388339" fill-opacity="0" stroke="black" stroke-width="0.01"/>
<circle cx="40.156112620384896" cy="40.18992449487167" r="0.004074895087998587" fill-opacity="0" stroke="black" stroke-width="0.01"/>
<circle cx="40.646760091473034" cy="40.870116430235875" r="0.06828657483045164" fill-opacity="0" stroke="black" stroke-width="0.01"/>
<circle cx="40.75848020867104" cy="40.348329537781595" r="0.027566507620021042" fill-opacity="0" stroke="black" stroke-width="0.01"/>
<circle cx="40.16010556340994" cy="40.72235293626771" r="0.09855823891455046" fill-opacity="0" stroke="black" stroke-width="0.01"/>
<circle cx="40.15393027298781" cy="40.0130127147001" r="0.02347871331791146" fill-opacity="0" stroke="black" stroke-width="0.01"/>
<circle cx="40.13574157212481" cy="40.534338449914536" r="0.06631774338009006" fill-opacity="0" stroke="black" stroke-width="0.01"/>
<circle cx="40.107302500665234" cy="40.95212449185024" r="0.4" fill="red"/>
<circle cx="39.93548119794086" cy="40.952235539698556" r="0.4" fill="red"/>
<circle cx="40.114860003583594" cy="41.000027255456395" r="0.4" fill="red"/>
<circle cx="40.04120543274343" cy="40.89837308132321" r="0.4" fill="red"/>
<circle cx="40.06508965994287" cy="41.001992600880754" r="0.4" fill="red"/>
<circle cx="40.10198675682654" cy="40.87997679515955" r="0.4" fill="red"/>
<circle cx="40.10876768306629" cy="40.955615694419485" r="0.4" fill="red"/>
<circle cx="40.03189081738597" cy="40.896851151414936" r="0.4" fill="red"/>
<circle cx="40.10457040888641" cy="40.95904229903466" r="0.4" fill="red"/>
<circle cx="40.100197694401864" cy="40.876723223103966" r="0.4" fill="red"/>
<circle cx="40.106790000431346" cy="40.881281679465694" r="0.4" fill="red"/>
<circle cx="40.02662976692404" cy="40.92333790982598" r="0.4" fill="red"/>
<circle cx="40.110401487450375" cy="41.02038003385792" r="0.4" fill="red"/>
<circle cx="40.041181695414814" cy="40.89836797029133" r="0.4" fill="red"/>
<circle cx="40.06102059084904" cy="41.00409029107822" r="0.4" fill="red"/>
<circle cx="40.09009970341606" cy="40.862546693013556" r="0.4" fill="red"/>
<circle cx="40.049633271450276" cy="40.993563862270484" r="0.4" fill="red"/>
<circle cx="40.04112855675431" cy="40.898454644314675" r="0.4" fill="red"/>
<circle cx="40.02944763698388" cy="40.936170097365924" r="0.4" fill="red"/>
<circle cx="40.07021321603998" cy="40.87044101497694" r="0.4" fill="red"/>
<circle cx="40.076201386892514" cy="40.538561900918246" r="0.4" fill="red"/>
<circle cx="40.051760781076524" cy="40.51503762057439" r="0.4" fill="red"/>
<circle cx="40.049991285243316" cy="40.15275550375215" r="0.4" fill="red"/>
<circle cx="40.09838784936893" cy="40.13811759563766" r="0.4" fill="red"/>
<circle cx="40.072181097173946" cy="40.55326222097233" r="0.4" fill="red"/>
<circle cx="40.07028930192148" cy="40.523659338890816" r="0.4" fill="red"/>
<circle cx="40.06942643049853" cy="40.53375101641697" r="0.4" fill="red"/>
<circle cx="40.19745467201897" cy="40.51005807947913" r="0.4" fill="red"/>
<circle cx="40.09715164238835" cy="40.54832295740569" r="0.4" fill="red"/>
<circle cx="40.20676145790958" cy="40.48816439662431" r="0.4" fill="red"/>
<circle cx="40.195908255245065" cy="40.56223134021536" r="0.4" fill="red"/>
<circle cx="40.10654400039593" cy="40.4747939716469" r="0.4" fill="red"/>
<circle cx="40.09434880970405" cy="40.58615236991878" r="0.4" fill="red"/>
<circle cx="40.15037313214047" cy="40.599021991395624" r="0.4" fill="red"/>
<circle cx="40.108916430143445" cy="40.56343979247354" r="0.4" fill="red"/>
<circle cx="40.1510953024337" cy="40.58045160076495" r="0.4" fill="red"/>
<circle cx="40.18735617313661" cy="40.52369581225581" r="0.4" fill="red"/>
<circle cx="40.176875854429525" cy="40.39745429920575" r="0.4" fill="red"/>
<circle cx="40.20142613958813" cy="40.52519620269715" r="0.4" fill="red"/>
<circle cx="40.1357734159229" cy="40.468020714179666" r="0.4" fill="red"/>
<circle cx="40.21401381887605" cy="40.52397845392783" r="0.4" fill="red"/>
<circle cx="40.13516575023207" cy="40.45767048842268" r="0.4" fill="red"/>
<circle cx="40.135733304360784" cy="40.450227956556816" r="0.4" fill="red"/>
<circle cx="40.1596786977245" cy="40.40753055576865" r="0.4" fill="red"/>
<circle cx="40.15093557811372" cy="41.00880481931864" r="0.4" fill="red"/>
<circle cx="40.186078343320645" cy="40.916944425791655" r="0.4" fill="red"/>
<circle cx="40.15039254629148" cy="40.501238554303946" r="0.4" fill="red"/>
<circle cx="40.16156339765665" cy="40.511894120265275" r="0.4" fill="red"/>
<circle cx="40.15961506126337" cy="40.54415845110615" r="0.4" fill="red"/>
<circle cx="40.20742400724787" cy="40.44540742486878" r="0.4" fill="red"/>
<circle cx="40.18163120894972" cy="40.58221521170045" r="0.4" fill="red"/>
<circle cx="40.16988594038002" cy="40.477485963570665" r="0.4" fill="red"/>
<circle cx="40.175717624914896" cy="40.57569470689415" r="0.4" fill="red"/>
<circle cx="40.18155253791129" cy="40.46295981087748" r="0.4" fill="red"/>
<circle cx="40.157900896067495" cy="40.50892905726324" r="0.4" fill="red"/>
<circle cx="40.26541405433654" cy="40.44213097943008" r="0.4" fill="red"/>
<circle cx="40.15743815222479" cy="40.51213276464257" r="0.4" fill="red"/>
<circle cx="40.1614762884215" cy="40.49487173903061" r="0.4" fill="red"/>
<circle cx="40.168385656880034" cy="40.82056274489223" r="0.4" fill="red"/>
<circle cx="40.25672838128436" cy="40.7417889215513" r="0.4" fill="red"/>
<circle cx="40.16813276637407" cy="40.79023109512059" r="0.4" fill="red"/>
<circle cx="40.178578725606016" cy="40.76646142444055" r="0.4" fill="red"/>
<circle cx="40.238302171804996" cy="40.6623611293817" r="0.4" fill="red"/>
<circle cx="40.175837402626975" cy="40.625058354235684" r="0.4" fill="red"/>
<circle cx="40.187976745509374" cy="40.587906393602296" r="0.4" fill="red"/>
<circle cx="40.26467143539164" cy="40.60318874814892" r="0.4" fill="red"/>
<circle cx="40.2254487924316" cy="40.79613632788778" r="0.4" fill="red"/>
<circle cx="40.23433092980828" cy="40.65751219721447" r="0.4" fill="red"/>
<circle cx="40.29846677685695" cy="40.787249787579306" r="0.4" fill="red"/>
<circle cx="40.18646335007601" cy="40.757098483991314" r="0.4" fill="red"/>
<circle cx="40.21643217769292" cy="40.66522304475692" r="0.4" fill="red"/>
<circle cx="40.25105234660755" cy="40.65483503272108" r="0.4" fill="red"/>
<circle cx="40.21764809233921" cy="40.802369083527886" r="0.4" fill="red"/>
<circle cx="40.250509932255994" cy="40.68310020959193" r="0.4" fill="red"/>
<circle cx="40.2978781797688" cy="40.82449226117571" r="0.4" fill="red"/>
<circle cx="40.19998238388081" cy="40.74676608428513" r="0.4" fill="red"/>
<circle cx="40.20606304139894" cy="40.784041491839716" r="0.4" fill="red"/>
<circle cx="40.319741113244696" cy="40.69475206791307" r="0.4" fill="red"/>
<circle cx="40.23181709803346" cy="40.78996345512297" r="0.4" fill="red"/>
<circle cx="40.258639450128136" cy="40.72454374117528" r="0.4" fill="red"/>
<circle cx="40.2645473018792" cy="40.864476669531214" r="0.4" fill="red"/>
<circle cx="40.24721999574966" cy="40.73908671274265" r="0.4" fill="red"/>
<circle cx="40.232048515753384" cy="40.79857678928365" r="0.4" fill="red"/>
<circle cx="40.319751921580036" cy="40.694773121420084" r="0.4" fill="red"/>
<circle cx="40.23525851642629" cy="40.81736630695567" r="0.4" fill="red"/>
<circle cx="40.31976656231087" cy="40.69477170363424" r="0.4" fill="red"/>
<circle cx="40.246207112313584" cy="40.50770975281815" r="0.4" fill="red"/>
<circle cx="40.264442891912516" cy="40.479155956947906" r="0.4" fill="red"/>
<circle cx="40.31907872558274" cy="40.553415468425555" r="0.4" fill="red"/>
<circle cx="40.309613713459925" cy="40.47413682835717" r="0.4" fill="red"/>
<circle cx="40.322410278852054" cy="40.502040757846224" r="0.4" fill="red"/>
<circle cx="40.32081941741309" cy="40.49652013005959" r="0.4" fill="red"/>
<circle cx="40.353389934645975" cy="40.17762729538402" r="0.4" fill="red"/>
<circle cx="40.42888931619262" cy="40.0827321878982" r="0.4" fill="red"/>
<circle cx="40.3051692416216" cy="40.88599949992465" r="0.4" fill="red"/>
<circle cx="40.42489341805612" cy="40.80916533962541" r="0.4" fill="red"/>
<circle cx="40.31913876682289" cy="40.8884822522382" r="0.4" fill="red"/>
<circle cx="40.422268091227835" cy="40.81998436214742" r="0.4" fill="red"/>
<circle cx="40.374672768718106" cy="40.87769223274915" r="0.4" fill="red"/>
<circle cx="40.418433052442396" cy="40.75290348496067" r="0.4" fill="red"/>
<circle cx="40.45115487240826" cy="40.893239397625585" r="0.4" fill="red"/>
<circle cx="40.358260866197625" cy="40.79674417453173" r="0.4" fill="red"/>
<circle cx="40.44037730907222" cy="40.896437269435175" r="0.4" fill="red"/>
<circle cx="40.35374852951907" cy="40.81143723192407" r="0.4" fill="red"/>
<circle cx="40.426344914940664" cy="40.78651836795172" r="0.4" fill="red"/>
<circle cx="40.42073964444962" cy="40.75872354614739" r="0.4" fill="red"/>
<circle cx="40.41622903473314" cy="40.80349427671941" r="0.4" fill="red"/>
<circle cx="40.36468209606948" cy="40.79520171779828" r="0.4" fill="red"/>
<circle cx="40.40545755595937" cy="40.81002256045692" r="0.4" fill="red"/>
<circle cx="40.37408714276489" cy="40.80571320014419" r="0.4" fill="red"/>
<circle cx="40.4156279013382" cy="40.75321827829215" r="0.4" fill="red"/>
<circle cx="40.362008975319064" cy="40.78921141898074" r="0.4" fill="red"/>
<circle cx="40.389361525962514" cy="40.287319494282535" r="0.4" fill="red"/>
<circle cx="40.36853578916333" cy="40.28857568131599" r="0.4" fill="red"/>
<circle cx="40.46437426259314" cy="40.32718042114439" r="0.4" fill="red"/>
<circle cx="40.38190134015493" cy="40.287262793862055" r="0.4" fill="red"/>
<circle cx="40.379230207459685" cy="40.29373141188476" r="0.4" fill="red"/>
<circle cx="40.38969220448363" cy="40.276251880423594" r="0.4" fill="red"/>
<circle cx="40.385552703838776" cy="40.94510403997214" r="0.4" fill="red"/>
<circle cx="40.454855745834884" cy="40.86603498725304" r="0.4" fill="red"/>
<circle cx="40.384475095586254" cy="40.93475392246337" r="0.4" fill="red"/>
<circle cx="40.44586835595544" cy="40.86618881510315" r="0.4" fill="red"/>
<circle cx="40.39788076014973" cy="40.89274985921709" r="0.4" fill="red"/>
<circle cx="40.480467446196414" cy="40.87252770797235" r="0.4" fill="red"/>
<circle cx="40.40181461018551" cy="40.978028209489864" r="0.4" fill="red"/>
<circle cx="40.495140145903534" cy="40.983922433759375" r="0.4" fill="red"/>
<circle cx="40.42306120977473" cy="40.2948731750958" r="0.4" fill="red"/>
<circle cx="40.40467761305583" cy="40.28921690003727" r="0.4" fill="red"/>
<circle cx="40.41805398499028" cy="40.12984032325868" r="0.4" fill="red"/>
<circle cx="40.42646911836301" cy="40.107471958583254" r="0.4" fill="red"/>
<circle cx="40.417406998233396" cy="40.15768190001865" r="0.4" fill="red"/>
<circle cx="40.43376823674146" cy="40.09678111588188" r="0.4" fill="red"/>
<circle cx="40.428925413501986" cy="40.088270822233866" r="0.4" fill="red"/>
<circle cx="40.41740800610642" cy="40.04118230550113" r="0.4" fill="red"/>
<circle cx="40.43310621955306" cy="40.09412325781993" r="0.4" fill="red"/>
<circle cx="40.42007762270574" cy="40.06888255173931" r="0.4" fill="red"/>
<circle cx="40.550505792783454" cy="40.093204965296735" r="0.4" fill="red"/>
<circle cx="40.434525499257695" cy="40.09586479267801" r="0.4" fill="red"/>
<circle cx="40.42231709804802" cy="40.93188238846829" r="0.4" fill="red"/>
<circle cx="40.45473451812554" cy="40.864024513158704" r="0.4" fill="red"/>
<circle cx="40.41982169645617" cy="40.92207779344716" r="0.4" fill="red"/>
<circle cx="40.445952095858665" cy="40.868007077322524" r="0.4" fill="red"/>
<circle cx="40.42168514872865" cy="40.89796933632642" r="0.4" fill="red"/>
<circle cx="40.48717372373849" cy="40.86328656508398" r="0.4" fill="red"/>
<circle cx="40.51820334848556" cy="40.93992921295476" r="0.4" fill="red"/>
<circle cx="40.449913747782865" cy="40.865970247512045" r="0.4" fill="red"/>
<circle cx="40.48571726944394" cy="40.96510848078471" r="0.4" fill="red"/>
<circle cx="40.432617869245775" cy="40.94919937695205" r="0.4" fill="red"/>
<circle cx="40.44178579648112" cy="40.467336729658115" r="0.4" fill="red"/>
<circle cx="40.47239866555938" cy="40.43264598755896" r="0.4" fill="red"/>
<circle cx="40.45242265243383" cy="40.21082177497054" r="0.4" fill="red"/>
<circle cx="40.51398743928029" cy="40.220050759119054" r="0.4" fill="red"/>
<circle cx="40.44300106728664" cy="40.91041858223307" r="0.4" fill="red"/>
<circle cx="40.45489988094921" cy="40.867149590317496" r="0.4" fill="red"/>
<circle cx="40.4446085124659" cy="40.89539717533474" r="0.4" fill="red"/>
<circle cx="40.49782730875173" cy="40.827771984146494" r="0.4" fill="red"/>
<circle cx="40.485260255644526" cy="40.99094607610363" r="0.4" fill="red"/>
<circle cx="40.45551418700245" cy="40.8660711577192" r="0.4" fill="red"/>
<circle cx="40.496631693134184" cy="40.997289632110316" r="0.4" fill="red"/>
<circle cx="40.44942746457885" cy="40.9469183851005" r="0.4" fill="red"/>
<circle cx="40.459112738159256" cy="40.96527257685279" r="0.4" fill="red"/>
<circle cx="40.45722793270548" cy="40.86322658955889" r="0.4" fill="red"/>
<circle cx="40.51844998245496" cy="40.936875211345075" r="0.4" fill="red"/>
<circle cx="40.49355898174277" cy="40.88077609927092" r="0.4" fill="red"/>
<circle cx="40.51935296594428" cy="40.937770389401365" r="0.4" fill="red"/>
<circle cx="40.494065230450865" cy="40.8658694717241" r="0.4" fill="red"/>
<circle cx="40.62128381872377" cy="40.951408553303416" r="0.4" fill="red"/>
<circle cx="40.512165875101985" cy="40.82264707912631" r="0.4" fill="red"/>
<circle cx="40.515560326208245" cy="40.952842973139525" r="0.4" fill="red"/>
<circle cx="40.51541131935568" cy="40.912694157914196" r="0.4" fill="red"/>
<circle cx="40.51009334134295" cy="40.950799381749846" r="0.4" fill="red"/>
<circle cx="40.524985104507046" cy="40.9128105766858" r="0.4" fill="red"/>
<circle cx="40.50476138583008" cy="40.91889142274808" r="0.4" fill="red"/>
<circle cx="40.53301485367799" cy="40.948639140364875" r="0.4" fill="red"/>
<circle cx="40.55981556362161" cy="40.1854367917564" r="0.4" fill="red"/>
<circle cx="40.5544508676822" cy="40.09784367271161" r="0.4" fill="red"/>
<circle cx="40.53281584532752" cy="40.10981277467116" r="0.4" fill="red"/>
<circle cx="40.54143997191211" cy="40.103069012714286" r="0.4" fill="red"/>
<circle cx="40.54389318476602" cy="40.20422238076302" r="0.4" fill="red"/>
<circle cx="40.561187591876305" cy="40.10798270577848" r="0.4" fill="red"/>
<circle cx="40.52966634355453" cy="40.16907387786504" r="0.4" fill="red"/>
<circle cx="40.58162858554882" cy="40.100249011385756" r="0.4" fill="red"/>
<circle cx="40.62057026443317" cy="40.952942298205734" r="0.4" fill="red"/>
<circle cx="40.616795899811" cy="40.86555458929398" r="0.4" fill="red"/>
<circle cx="40.61838506635894" cy="40.95294938901976" r="0.4" fill="red"/>
<circle cx="40.66211335920613" cy="40.900097763976675" r="0.4" fill="red"/>
<circle cx="40.62685531798063" cy="40.93543760822809" r="0.4" fill="red"/>
<circle cx="40.5880988540118" cy="40.83516052198575" r="0.4" fill="red"/>
<circle cx="40.63934137600891" cy="40.937998820904866" r="0.4" fill="red"/>
<circle cx="40.627226829650375" cy="40.804683197206764" r="0.4" fill="red"/>
<circle cx="40.65210286752043" cy="40.93819367346871" r="0.4" fill="red"/>
<circle cx="40.58093388070521" cy="40.888281404169916" r="0.4" fill="red"/>
<circle cx="40.59835228161176" cy="40.52794597980928" r="0.4" fill="red"/>
<circle cx="40.62271223425354" cy="40.417866000897476" r="0.4" fill="red"/>
<circle cx="40.61269642185725" cy="40.966433513863635" r="0.4" fill="red"/>
<circle cx="40.61660770242792" cy="40.865235460012194" r="0.4" fill="red"/>
<circle cx="40.608053150762736" cy="40.95736801753707" r="0.4" fill="red"/>
<circle cx="40.65410448794401" cy="40.83346137849623" r="0.4" fill="red"/>
<circle cx="40.605368581711616" cy="40.95066972335585" r="0.4" fill="red"/>
<circle cx="40.616369796721706" cy="40.86558146151385" r="0.4" fill="red"/>
<circle cx="40.599872651949866" cy="40.9197614130341" r="0.4" fill="red"/>
<circle cx="40.69760754861582" cy="40.824535815889554" r="0.4" fill="red"/>
<circle cx="40.61602268525805" cy="40.96135133705548" r="0.4" fill="red"/>
<circle cx="40.628240542998" cy="40.928911957428575" r="0.4" fill="red"/>
<circle cx="40.61768196590304" cy="40.95330205422137" r="0.4" fill="red"/>
<circle cx="40.662666510413636" cy="40.89809144909064" r="0.4" fill="red"/>
<circle cx="40.61777799506335" cy="40.95293197340594" r="0.4" fill="red"/>
<circle cx="40.661752630592424" cy="40.898545428646486" r="0.4" fill="red"/>
<circle cx="40.624833548731125" cy="40.93478700333881" r="0.4" fill="red"/>
<circle cx="40.712000905685755" cy="40.8902830477742" r="0.4" fill="red"/>
<circle cx="40.61510416500783" cy="40.97034627217585" r="0.4" fill="red"/>
<circle cx="40.782342431643656" cy="40.95307695926174" r="0.4" fill="red"/>
<circle cx="40.62945256401515" cy="40.91872800852751" r="0.4" fill="red"/>
<circle cx="40.62961037719876" cy="40.910431390413045" r="0.4" fill="red"/>
<circle cx="40.63565679995218" cy="40.941368803868905" r="0.4" fill="red"/>
<circle cx="40.66458543398797" cy="40.863787704936534" r="0.4" fill="red"/>
<circle cx="40.63967500441152" cy="40.94794307698293" r="0.4" fill="red"/>
<circle cx="40.64677282234559" cy="40.87515634506893" r="0.4" fill="red"/>
<circle cx="40.63367740782142" cy="40.937138066224165" r="0.4" fill="red"/>
<circle cx="40.71502852767435" cy="40.868542606642855" r="0.4" fill="red"/>
<circle cx="40.73821887427781" cy="40.898489512327316" r="0.4" fill="red"/>
<circle cx="40.63030304742428" cy="40.925813784433" r="0.4" fill="red"/>
<circle cx="40.77668893003713" cy="40.487651095416595" r="0.4" fill="red"/>
<circle cx="40.664087666213305" cy="40.39756962381031" r="0.4" fill="red"/>
<circle cx="40.73356935654789" cy="40.41027221504381" r="0.4" fill="red"/>
<circle cx="40.7202472509832" cy="40.40320591559094" r="0.4" fill="red"/>
<circle cx="40.784074280207086" cy="40.41770064017497" r="0.4" fill="red"/>
<circle cx="40.69342756422877" cy="40.37799373096056" r="0.4" fill="red"/>
<circle cx="40.68011315622637" cy="40.760500193205246" r="0.4" fill="red"/>
<circle cx="40.748891456542054" cy="40.669911720374785" r="0.4" fill="red"/>
<circle cx="40.712420624826834" cy="40.888871447211876" r="0.4" fill="red"/>
<circle cx="40.68877181337" cy="40.81628269058009" r="0.4" fill="red"/>
<circle cx="40.78517507547318" cy="40.89321499996673" r="0.4" fill="red"/>
<circle cx="40.68675518255487" cy="40.8247801941145" r="0.4" fill="red"/>
<circle cx="40.74375817375841" cy="40.90153558562671" r="0.4" fill="red"/>
<circle cx="40.71511831019215" cy="40.890785090099456" r="0.4" fill="red"/>
<circle cx="40.73889214482348" cy="40.90073339948253" r="0.4" fill="red"/>
<circle cx="40.69045516025266" cy="40.86011430002109" r="0.4" fill="red"/>
<circle cx="40.703231244811896" cy="40.79104319268907" r="0.4" fill="red"/>
<circle cx="40.79203448816304" cy="40.782923956896425" r="0.4" fill="red"/>
<circle cx="40.76930036376956" cy="40.97630194992196" r="0.4" fill="red"/>
<circle cx="40.76159066140115" cy="40.85265251732781" r="0.4" fill="red"/>
<circle cx="40.78440548089705" cy="40.98515468648409" r="0.4" fill="red"/>
<circle cx="40.73760917772119" cy="40.89818623340462" r="0.4" fill="red"/>
<circle cx="40.73889037987271" cy="40.93054800192858" r="0.4" fill="red"/>
<circle cx="40.737779099061825" cy="40.89718370838481" r="0.4" fill="red"/>
<circle cx="40.73728157441845" cy="40.900384995714035" r="0.4" fill="red"/>
<circle cx="40.818121997397306" cy="40.830194636875554" r="0.4" fill="red"/>
<circle cx="40.86916913579268" cy="40.33499145116294" r="0.4" fill="red"/>
<circle cx="40.74058296774611" cy="40.22840480854969" r="0.4" fill="red"/>
<circle cx="40.781123358604454" cy="40.332606939285874" r="0.4" fill="red"/>
<circle cx="40.76671252593947" cy="40.32202095943238" r="0.4" fill="red"/>
<circle cx="40.87021863620213" cy="40.320324925388604" r="0.4" fill="red"/>
<circle cx="40.74835146436092" cy="40.22607142369262" r="0.4" fill="red"/>
<circle cx="40.78336329135946" cy="40.33646595744992" r="0.4" fill="red"/>
<circle cx="40.76055684168067" cy="40.320841359637015" r="0.4" fill="red"/>
<circle cx="40.73751669613856" cy="40.266828828601504" r="0.4" fill="red"/>
<circle cx="40.80607541935471" cy="40.34273368133572" r="0.4" fill="red"/>
<circle cx="40.740457270147054" cy="40.75246542588052" r="0.4" fill="red"/>
<circle cx="40.75754009492925" cy="40.684217159444614" r="0.4" fill="red"/>
<circle cx="40.7750655163254" cy="40.795994427285315" r="0.4" fill="red"/>
<circle cx="40.76865916946855" cy="40.67472577978496" r="0.4" fill="red"/>
<circle cx="40.810579509168036" cy="40.80464571667467" r="0.4" fill="red"/>
<circle cx="40.747785441445224" cy="40.769675829567234" r="0.4" fill="red"/>
<circle cx="40.76783850615479" cy="40.978163511033266" r="0.4" fill="red"/>
<circle cx="40.783545894247794" cy="40.88802895394085" r="0.4" fill="red"/>
<circle cx="40.78478233881085" cy="40.98156901249634" r="0.4" fill="red"/>
<circle cx="40.74920860705187" cy="40.90509271742229" r="0.4" fill="red"/>
<circle cx="40.73872441924917" cy="40.93113379797655" r="0.4" fill="red"/>
<circle cx="40.74066367854974" cy="40.92098164335461" r="0.4" fill="red"/>
<circle cx="40.75192592739746" cy="40.90206203156485" r="0.4" fill="red"/>
<circle cx="40.79225946836894" cy="40.888503076964234" r="0.4" fill="red"/>
<circle cx="40.73880655990514" cy="40.93020335520183" r="0.4" fill="red"/>
<circle cx="40.7756184626133" cy="40.98054493287172" r="0.4" fill="red"/>
<circle cx="40.7499377290578" cy="40.554456500642374" r="0.4" fill="red"/>
<circle cx="40.76685304063604" cy="40.53074916076159" r="0.4" fill="red"/>
<circle cx="40.75545380513651" cy="40.73419516219483" r="0.4" fill="red"/>
<circle cx="40.76186715916315" cy="40.70113158603173" r="0.4" fill="red"/>
<circle cx="40.80305451730176" cy="40.76719443537873" r="0.4" fill="red"/>
<circle cx="40.784952331083524" cy="40.684313089646466" r="0.4" fill="red"/>
<circle cx="40.817427165067976" cy="40.16460276336919" r="0.4" fill="red"/>
<circle cx="40.780149802176965" cy="40.177294800888106" r="0.4" fill="red"/>
<circle cx="40.823388071562974" cy="40.18846136720846" r="0.4" fill="red"/>
<circle cx="40.78424548645286" cy="40.19442913640587" r="0.4" fill="red"/>
<circle cx="40.795172601686964" cy="40.779338906794315" r="0.4" fill="red"/>
<circle cx="40.808174311647306" cy="40.72020195973736" r="0.4" fill="red"/>
<circle cx="40.814017613243706" cy="40.8122074803951" r="0.4" fill="red"/>
<circle cx="40.797877042700044" cy="40.78789338388895" r="0.4" fill="red"/>
<circle cx="40.80728972784383" cy="40.804636858918236" r="0.4" fill="red"/>
<circle cx="40.86903175752586" cy="40.69478289410741" r="0.4" fill="red"/>
<circle cx="40.79334130118315" cy="40.76747040687782" r="0.4" fill="red"/>
<circle cx="40.83213310527359" cy="40.70113785140583" r="0.4" fill="red"/>
<circle cx="40.8096895017867" cy="40.745746938136115" r="0.4" fill="red"/>
<circle cx="40.79870597583464" cy="40.699175653112874" r="0.4" fill="red"/>
<circle cx="40.868249533619796" cy="40.773187670836506" r="0.4" fill="red"/>
<circle cx="40.81723924205474" cy="40.6625857771599" r="0.4" fill="red"/>
<circle cx="40.82234825630709" cy="40.759246621166575" r="0.4" fill="red"/>
<circle cx="40.803285809625244" cy="40.683038922983705" r="0.4" fill="red"/>
<circle cx="40.92310121230582" cy="40.73225971946042" r="0.4" fill="red"/>
<circle cx="40.80163797711245" cy="40.73001701629799" r="0.4" fill="red"/>
<circle cx="40.843348859201356" cy="40.38799122656346" r="0.4" fill="red"/>
<circle cx="40.853640972884556" cy="40.37514733667105" r="0.4" fill="red"/>
<circle cx="40.866766104278895" cy="40.34644899649146" r="0.4" fill="red"/>
<circle cx="40.84770127034834" cy="40.258320605706764" r="0.4" fill="red"/>
<circle cx="40.85739458376276" cy="40.34010420261053" r="0.4" fill="red"/>
<circle cx="40.91640842146506" cy="40.23837579754304" r="0.4" fill="red"/>
<circle cx="40.85131171683477" cy="40.33431444112436" r="0.4" fill="red"/>
<circle cx="40.88652644350172" cy="40.23518748280604" r="0.4" fill="red"/>
<circle cx="40.84475937986208" cy="40.987567701520874" r="0.4" fill="red"/>
<circle cx="40.89386958238506" cy="40.93856252504519" r="0.4" fill="red"/>
<circle cx="40.86948900947503" cy="40.308783624518824" r="0.4" fill="red"/>
<circle cx="40.8679490420154" cy="40.2997689820174" r="0.4" fill="red"/>
<circle cx="40.94945345406002" cy="40.38077160127111" r="0.4" fill="red"/>
<circle cx="40.891824659939616" cy="40.35720918242325" r="0.4" fill="red"/>
<circle cx="40.89164689337512" cy="40.35363309276139" r="0.4" fill="red"/>
<circle cx="40.946659703043544" cy="40.324474854128106" r="0.4" fill="red"/>
<circle cx="40.958460773861454" cy="40.448651803437976" r="0.4" fill="red"/>
<circle cx="40.91732039929698" cy="40.35945581659685" r="0.4" fill="red"/>
<circle cx="40.92204799481951" cy="40.34743363467331" r="0.4" fill="red"/>
<circle cx="40.95053856235263" cy="40.31665883847153" r="0.4" fill="red"/>
<circle cx="40.9433236524568" cy="40.439635828020386" r="0.4" fill="red"/>
<circle cx="40.91885804995789" cy="40.40637536008957" r="0.4" fill="red"/>
<circle cx="40.91450438919588" cy="40.386676282783284" r="0.4" fill="red"/>
<circle cx="40.94261740790625" cy="40.3221147048141" r="0.4" fill="red"/>
<circle cx="40.95234973091209" cy="40.31157275475586" r="0.4" fill="red"/>
<circle cx="40.93224669946659" cy="40.24732492212324" r="0.4" fill="red"/>
<circle cx="40.92856826754642" cy="40.77859716103998" r="0.4" fill="red"/>
<circle cx="40.92961750905383" cy="40.75286304793657" r="0.4" fill="red"/>
<circle cx="40.95231407534831" cy="40.378109187666446" r="0.4" fill="red"/>
<circle cx="40.95066354581017" cy="40.32762907385741" r="0.4" fill="red"/>
<circle cx="40.960188613680636" cy="40.36528755025606" r="0.4" fill="red"/>
<circle cx="40.95256950094116" cy="40.32950533755639" r="0.4" fill="red"/>
<circle cx="41.0420957353164" cy="40.32862880798337" r="0.4" fill="red"/>
<circle cx="40.960413775064154" cy="40.311712801213424" r="0.4" fill="red"/>
<circle cx="40.961498799418045" cy="40.310282111984804" r="0.4" fill="red"/>
<circle cx="40.98141797199899" cy="40.29576546011518" r="0.4" fill="red"/>
<circle cx="40.98693308660192" cy="40.38321826435191" r="0.4" fill="red"/>
<circle cx="40.953706693362285" cy="40.32507433248665" r="0.4" fill="red"/>
<circle cx="39.93548119794086" cy="40.952235539698556" r="0.4" fill="yellow"/>
<circle cx="40.107302500665234" cy="40.95212449185024" r="0.4" fill="yellow"/>
<circle cx="40.04120543274343" cy="40.89837308132321" r="0.4" fill="yellow"/>
<circle cx="40.114860003583594" cy="41.000027255456395" r="0.4" fill="yellow"/>
<circle cx="40.10198675682654" cy="40.87997679515955" r="0.4" fill="yellow"/>
<circle cx="40.06508965994287" cy="41.001992600880754" r="0.4" fill="yellow"/>
<circle cx="40.03189081738597" cy="40.896851151414936" r="0.4" fill="yellow"/>
<circle cx="40.10876768306629" cy="40.955615694419485" r="0.4" fill="yellow"/>
<circle cx="40.100197694401864" cy="40.876723223103966" r="0.4" fill="yellow"/>
<circle cx="40.10457040888641" cy="40.95904229903466" r="0.4" fill="yellow"/>
<circle cx="40.02662976692404" cy="40.92333790982598" r="0.4" fill="yellow"/>
<circle cx="40.106790000431346" cy="40.881281679465694" r="0.4" fill="yellow"/>
<circle cx="40.041181695414814" cy="40.89836797029133" r="0.4" fill="yellow"/>
<circle cx="40.110401487450375" cy="41.02038003385792" r="0.4" fill="yellow"/>
<circle cx="40.09009970341606" cy="40.862546693013556" r="0.4" fill="yellow"/>
<circle cx="40.06102059084904" cy="41.00409029107822" r="0.4" fill="yellow"/>
<circle cx="40.04112855675431" cy="40.898454644314675" r="0.4" fill="yellow"/>
<circle cx="40.049633271450276" cy="40.993563862270484" r="0.4" fill="yellow"/>
<circle cx="40.07021321603998" cy="40.87044101497694" r="0.4" fill="yellow"/>
<circle cx="40.02944763698388" cy="40.936170097365924" r="0.4" fill="yellow"/>
<circle cx="40.051760781076524" cy="40.51503762057439" r="0.4" fill="yellow"/>
<circle cx="40.076201386892514" cy="40.538561900918246" r="0.4" fill="yellow"/>
<circle cx="40.09838784936893" cy="40.13811759563766" r="0.4" fill="yellow"/>
<circle cx="40.049991285243316" cy="40.15275550375215" r="0.4" fill="yellow"/>
<circle cx="40.07028930192148" cy="40.523659338890816" r="0.4" fill="yellow"/>
<circle cx="40.072181097173946" cy="40.55326222097233" r="0.4" fill="yellow"/>
<circle cx="40.19745467201897" cy="40.51005807947913" r="0.4" fill="yellow"/>
<circle cx="40.06942643049853" cy="40.53375101641697" r="0.4" fill="yellow"/>
<circle cx="40.20676145790958" cy="40.48816439662431" r="0.4" fill="yellow"/>
<circle cx="40.09715164238835" cy="40.54832295740569" r="0.4" fill="yellow"/>
<circle cx="40.10654400039593" cy="40.4747939716469" r="0.4" fill="yellow"/>
<circle cx="40.195908255245065" cy="40.56223134021536" r="0.4" fill="yellow"/>
<circle cx="40.15037313214047" cy="40.599021991395624" r="0.4" fill="yellow"/>
<circle cx="40.09434880970405" cy="40.58615236991878" r="0.4" fill="yellow"/>
<circle cx="40.1510953024337" cy="40.58045160076495" r="0.4" fill="yellow"/>
<circle cx="40.108916430143445" cy="40.56343979247354" r="0.4" fill="yellow"/>
<circle cx="40.176875854429525" cy="40.39745429920575" r="0.4" fill="yellow"/>
<circle cx="40.18735617313661" cy="40.52369581225581" r="0.4" fill="yellow"/>
<circle cx="40.1357734159229" cy="40.468020714179666" r="0.4" fill="yellow"/>
<circle cx="40.20142613958813" cy="40.52519620269715" r="0.4" fill="yellow"/>
<circle cx="40.13516575023207" cy="40.45767048842268" r="0.4" fill="yellow"/>
<circle cx="40.21401381887605" cy="40.52397845392783" r="0.4" fill="yellow"/>
<circle cx="40.1596786977245" cy="40.40753055576865" r="0.4" fill="yellow"/>
<circle cx="40.135733304360784" cy="40.450227956556816" r="0.4" fill="yellow"/>
<circle cx="40.186078343320645" cy="40.916944425791655" r="0.4" fill="yellow"/>
<circle cx="40.15093557811372" cy="41.00880481931864" r="0.4" fill="yellow"/>
<circle cx="40.16156339765665" cy="40.511894120265275" r="0.4" fill="yellow"/>
<circle cx="40.15039254629148" cy="40.501238554303946" r="0.4" fill="yellow"/>
<circle cx="40.20742400724787" cy="40.44540742486878" r="0.4" fill="yellow"/>
<circle cx="40.15961506126337" cy="40.54415845110615" r="0.4" fill="yellow"/>
<circle cx="40.16988594038002" cy="40.477485963570665" r="0.4" fill="yellow"/>
<circle cx="40.18163120894972" cy="40.58221521170045" r="0.4" fill="yellow"/>
<circle cx="40.1614762884215" cy="40.49487173903061" r="0.4" fill="yellow"/>
<circle cx="40.15743815222479" cy="40.51213276464257" r="0.4" fill="yellow"/>
<circle cx="40.18155253791129" cy="40.46295981087748" r="0.4" fill="yellow"/>
<circle cx="40.175717624914896" cy="40.57569470689415" r="0.4" fill="yellow"/>
<circle cx="40.26541405433654" cy="40.44213097943008" r="0.4" fill="yellow"/>
<circle cx="40.157900896067495" cy="40.50892905726324" r="0.4" fill="yellow"/>
<circle cx="40.25672838128436" cy="40.7417889215513" r="0.4" fill="yellow"/>
<circle cx="40.168385656880034" cy="40.82056274489223" r="0.4" fill="yellow"/>
<circle cx="40.178578725606016" cy="40.76646142444055" r="0.4" fill="yellow"/>
<circle cx="40.16813276637407" cy="40.79023109512059" r="0.4" fill="yellow"/>
<circle cx="40.175837402626975" cy="40.625058354235684" r="0.4" fill="yellow"/>
<circle cx="40.238302171804996" cy="40.6623611293817" r="0.4" fill="yellow"/>
<circle cx="40.26467143539164" cy="40.60318874814892" r="0.4" fill="yellow"/>
<circle cx="40.187976745509374" cy="40.587906393602296" r="0.4" fill="yellow"/>
<circle cx="40.23433092980828" cy="40.65751219721447" r="0.4" fill="yellow"/>
<circle cx="40.2254487924316" cy="40.79613632788778" r="0.4" fill="yellow"/>
<circle cx="40.18646335007601" cy="40.757098483991314" r="0.4" fill="yellow"/>
<circle cx="40.29846677685695" cy="40.787249787579306" r="0.4" fill="yellow"/>
<circle cx="40.25105234660755" cy="40.65483503272108" r="0.4" fill="yellow"/>
<circle cx="40.21643217769292" cy="40.66522304475692" r="0.4" fill="yellow"/>
<circle cx="40.250509932255994" cy="40.68310020959193" r="0.4" fill="yellow"/>
<circle cx="40.21764809233921" cy="40.802369083527886" r="0.4" fill="yellow"/>
<circle cx="40.19998238388081" cy="40.74676608428513" r="0.4" fill="yellow"/>
<circle cx="40.2978781797688" cy="40.82449226117571" r="0.4" fill="yellow"/>
<circle cx="40.319741113244696" cy="40.69475206791307" r="0.4" fill="yellow"/>
<circle cx="40.20606304139894" cy="40.784041491839716" r="0.4" fill="yellow"/>
<circle cx="40.258639450128136" cy="40.72454374117528" r="0.4" fill="yellow"/>
<circle cx="40.23181709803346" cy="40.78996345512297" r="0.4" fill="yellow"/>
<circle cx="40.24721999574966" cy="40.73908671274265" r="0.4" fill="yellow"/>
<circle cx="40.2645473018792" cy="40.864476669531214" r="0.4" fill="yellow"/>
<circle cx="40.319751921580036" cy="40.694773121420084" r="0.4" fill="yellow"/>
<circle cx="40.232048515753384" cy="40.79857678928365" r="0.4" fill="yellow"/>
<circle cx="40.31976656231087" cy="40.69477170363424" r="0.4" fill="yellow"/>
<circle cx="40.23525851642629" cy="40.81736630695567" r="0.4" fill="yellow"/>
<circle cx="40.264442891912516" cy="40.479155956947906" r="0.4" fill="yellow"/>
<circle cx="40.246207112313584" cy="40.50770975281815" r="0.4" fill="yellow"/>
<circle cx="40.309613713459925" cy="40.47413682835717" r="0.4" fill="yellow"/>
<circle cx="40.31907872558274" cy="40.553415468425555" r="0.4" fill="yellow"/>
<circle cx="40.32081941741309" cy="40.49652013005959" r="0.4" fill="yellow"/>
<circle cx="40.322410278852054" cy="40.502040757846224" r="0.4" fill="yellow"/>
<circle cx="40.42888931619262" cy="40.0827321878982" r="0.4" fill="yellow"/>
<circle cx="40.353389934645975" cy="40.17762729538402" r="0.4" fill="yellow"/>
<circle cx="40.42489341805612" cy="40.80916533962541" r="0.4" fill="yellow"/>
<circle cx="40.3051692416216" cy="40.88599949992465" r="0.4" fill="yellow"/>
<circle cx="40.422268091227835" cy="40.81998436214742" r="0.4" fill="yellow"/>
<circle cx="40.31913876682289" cy="40.8884822522382" r="0.4" fill="yellow"/>
<circle cx="40.418433052442396" cy="40.75290348496067" r="0.4" fill="yellow"/>
<circle cx="40.374672768718106" cy="40.87769223274915" r="0.4" fill="yellow"/>
<circle cx="40.358260866197625" cy="40.79674417453173" r="0.4" fill="yellow"/>
<circle cx="40.45115487240826" cy="40.893239397625585" r="0.4" fill="yellow"/>
<circle cx="40.35374852951907" cy="40.81143723192407" r="0.4" fill="yellow"/>
<circle cx="40.44037730907222" cy="40.896437269435175" r="0.4" fill="yellow"/>
<circle cx="40.42073964444962" cy="40.75872354614739" r="0.4" fill="yellow"/>
<circle cx="40.426344914940664" cy="40.78651836795172" r="0.4" fill="yellow"/>
<circle cx="40.36468209606948" cy="40.79520171779828" r="0.4" fill="yellow"/>
<circle cx="40.41622903473314" cy="40.80349427671941" r="0.4" fill="yellow"/>
<circle cx="40.37408714276489" cy="40.80571320014419" r="0.4" fill="yellow"/>
<circle cx="40.40545755595937" cy="40.81002256045692" r="0.4" fill="yellow"/>
<circle cx="40.362008975319064" cy="40.78921141898074" r="0.4" fill="yellow"/>
<circle cx="40.4156279013382" cy="40.75321827829215" r="0.4" fill="yellow"/>
<circle cx="40.36853578916333" cy="40.28857568131599" r="0.4" fill="yellow"/>
<circle cx="40.389361525962514" cy="40.287319494282535" r="0.4" fill="yellow"/>
<circle cx="40.38190134015493" cy="40.287262793862055" r="0.4" fill="yellow"/>
<circle cx="40.46437426259314" cy="40.32718042114439" r="0.4" fill="yellow"/>
<circle cx="40.38969220448363" cy="40.276251880423594" r="0.4" fill="yellow"/>
<circle cx="40.379230207459685" cy="40.29373141188476" r="0.4" fill="yellow"/>
<circle cx="40.454855745834884" cy="40.86603498725304" r="0.4" fill="yellow"/>
<circle cx="40.385552703838776" cy="40.94510403997214" r="0.4" fill="yellow"/>
<circle cx="40.44586835595544" cy="40.86618881510315" r="0.4" fill="yellow"/>
<circle cx="40.384475095586254" cy="40.93475392246337" r="0.4" fill="yellow"/>
<circle cx="40.480467446196414" cy="40.87252770797235" r="0.4" fill="yellow"/>
<circle cx="40.39788076014973" cy="40.89274985921709" r="0.4" fill="yellow"/>
<circle cx="40.495140145903534" cy="40.983922433759375" r="0.4" fill="yellow"/>
<circle cx="40.40181461018551" cy="40.978028209489864" r="0.4" fill="yellow"/>
<circle cx="40.40467761305583" cy="40.28921690003727" r="0.4" fill="yellow"/>
<circle cx="40.42306120977473" cy="40.2948731750958" r="0.4" fill="yellow"/>
<circle cx="40.42646911836301" cy="40.107471958583254" r="0.4" fill="yellow"/>
<circle cx="40.41805398499028" cy="40.12984032325868" r="0.4" fill="yellow"/>
<circle cx="40.43376823674146" cy="40.09678111588188" r="0.4" fill="yellow"/>
<circle cx="40.417406998233396" cy="40.15768190001865" r="0.4" fill="yellow"/>
<circle cx="40.41740800610642" cy="40.04118230550113" r="0.4" fill="yellow"/>
<circle cx="40.428925413501986" cy="40.088270822233866" r="0.4" fill="yellow"/>
<circle cx="40.42007762270574" cy="40.06888255173931" r="0.4" fill="yellow"/>
<circle cx="40.43310621955306" cy="40.09412325781993" r="0.4" fill="yellow"/>
<circle cx="40.434525499257695" cy="40.09586479267801" r="0.4" fill="yellow"/>
<circle cx="40.550505792783454" cy="40.093204965296735" r="0.4" fill="yellow"/>
<circle cx="40.45473451812554" cy="40.864024513158704" r="0.4" fill="yellow"/>
<circle cx="40.42231709804802" cy="40.93188238846829" r="0.4" fill="yellow"/>
<circle cx="40.445952095858665" cy="40.868007077322524" r="0.4" fill="yellow"/>
<circle cx="40.41982169645617" cy="40.92207779344716" r="0.4" fill="yellow"/>
<circle cx="40.48717372373849" cy="40.86328656508398" r="0.4" fill="yellow"/>
<circle cx="40.42168514872865" cy="40.89796933632642" r="0.4" fill="yellow"/>
<circle cx="40.449913747782865" cy="40.865970247512045" r="0.4" fill="yellow"/>
<circle cx="40.51820334848556" cy="40.93992921295476" r="0.4" fill="yellow"/>
<circle cx="40.432617869245775" cy="40.94919937695205" r="0.4" fill="yellow"/>
<circle cx="40.48571726944394" cy="40.96510848078471" r="0.4" fill="yellow"/>
<circle cx="40.51398743928029" cy="40.220050759119054" r="0.4" fill="yellow"/>
<circle cx="40.45242265243383" cy="40.21082177497054" r="0.4" fill="yellow"/>
<circle cx="40.49782730875173" cy="40.827771984146494" r="0.4" fill="yellow"/>
<circle cx="40.4446085124659" cy="40.89539717533474" r="0.4" fill="yellow"/>
<circle cx="40.45489988094921" cy="40.867149590317496" r="0.4" fill="yellow"/>
<circle cx="40.44300106728664" cy="40.91041858223307" r="0.4" fill="yellow"/>
<circle cx="40.45551418700245" cy="40.8660711577192" r="0.4" fill="yellow"/>
<circle cx="40.485260255644526" cy="40.99094607610363" r="0.4" fill="yellow"/>
<circle cx="40.44942746457885" cy="40.9469183851005" r="0.4" fill="yellow"/>
<circle cx="40.496631693134184" cy="40.997289632110316" r="0.4" fill="yellow"/>
<circle cx="40.45722793270548" cy="40.86322658955889" r="0.4" fill="yellow"/>
<circle cx="40.459112738159256" cy="40.96527257685279" r="0.4" fill="yellow"/>
<circle cx="40.49355898174277" cy="40.88077609927092" r="0.4" fill="yellow"/>
<circle cx="40.51844998245496" cy="40.936875211345075" r="0.4" fill="yellow"/>
<circle cx="40.494065230450865" cy="40.8658694717241" r="0.4" fill="yellow"/>
<circle cx="40.51935296594428" cy="40.937770389401365" r="0.4" fill="yellow"/>
<circle cx="40.512165875101985" cy="40.82264707912631" r="0.4" fill="yellow"/>
<circle cx="40.62128381872377" cy="40.951408553303416" r="0.4" fill="yellow"/>
<circle cx="40.53301485367799" cy="40.948639140364875" r="0.4" fill="yellow"/>
<circle cx="40.50476138583008" cy="40.91889142274808" r="0.4" fill="yellow"/>
<circle cx="40.51541131935568" cy="40.912694157914196" r="0.4" fill="yellow"/>
<circle cx="40.515560326208245" cy="40.952842973139525" r="0.4" fill="yellow"/>
<circle cx="40.524985104507046" cy="40.9128105766858" r="0.4" fill="yellow"/>
<circle cx="40.51009334134295" cy="40.950799381749846" r="0.4" fill="yellow"/>
<circle cx="40.5544508676822" cy="40.09784367271161" r="0.4" fill="yellow"/>
<circle cx="40.55981556362161" cy="40.1854367917564" r="0.4" fill="yellow"/>
<circle cx="40.54143997191211" cy="40.103069012714286" r="0.4" fill="yellow"/>
<circle cx="40.53281584532752" cy="40.10981277467116" r="0.4" fill="yellow"/>
<circle cx="40.561187591876305" cy="40.10798270577848" r="0.4" fill="yellow"/>
<circle cx="40.54389318476602" cy="40.20422238076302" r="0.4" fill="yellow"/>
<circle cx="40.58162858554882" cy="40.100249011385756" r="0.4" fill="yellow"/>
<circle cx="40.52966634355453" cy="40.16907387786504" r="0.4" fill="yellow"/>
<circle cx="40.66211335920613" cy="40.900097763976675" r="0.4" fill="yellow"/>
<circle cx="40.61838506635894" cy="40.95294938901976" r="0.4" fill="yellow"/>
<circle cx="40.616795899811" cy="40.86555458929398" r="0.4" fill="yellow"/>
<circle cx="40.62057026443317" cy="40.952942298205734" r="0.4" fill="yellow"/>
<circle cx="40.627226829650375" cy="40.804683197206764" r="0.4" fill="yellow"/>
<circle cx="40.63934137600891" cy="40.937998820904866" r="0.4" fill="yellow"/>
<circle cx="40.5880988540118" cy="40.83516052198575" r="0.4" fill="yellow"/>
<circle cx="40.62685531798063" cy="40.93543760822809" r="0.4" fill="yellow"/>
<circle cx="40.58093388070521" cy="40.888281404169916" r="0.4" fill="yellow"/>
<circle cx="40.65210286752043" cy="40.93819367346871" r="0.4" fill="yellow"/>
<circle cx="40.62271223425354" cy="40.417866000897476" r="0.4" fill="yellow"/>
<circle cx="40.59835228161176" cy="40.52794597980928" r="0.4" fill="yellow"/>
<circle cx="40.65410448794401" cy="40.83346137849623" r="0.4" fill="yellow"/>
<circle cx="40.608053150762736" cy="40.95736801753707" r="0.4" fill="yellow"/>
<circle cx="40.61660770242792" cy="40.865235460012194" r="0.4" fill="yellow"/>
<circle cx="40.61269642185725" cy="40.966433513863635" r="0.4" fill="yellow"/>
<circle cx="40.616369796721706" cy="40.86558146151385" r="0.4" fill="yellow"/>
<circle cx="40.605368581711616" cy="40.95066972335585" r="0.4" fill="yellow"/>
<circle cx="40.69760754861582" cy="40.824535815889554" r="0.4" fill="yellow"/>
<circle cx="40.599872651949866" cy="40.9197614130341" r="0.4" fill="yellow"/>
<circle cx="40.662666510413636" cy="40.89809144909064" r="0.4" fill="yellow"/>
<circle cx="40.61768196590304" cy="40.95330205422137" r="0.4" fill="yellow"/>
<circle cx="40.628240542998" cy="40.928911957428575" r="0.4" fill="yellow"/>
<circle cx="40.61602268525805" cy="40.96135133705548" r="0.4" fill="yellow"/>
<circle cx="40.661752630592424" cy="40.898545428646486" r="0.4" fill="yellow"/>
<circle cx="40.61777799506335" cy="40.95293197340594" r="0.4" fill="yellow"/>
<circle cx="40.712000905685755" cy="40.8902830477742" r="0.4" fill="yellow"/>
<circle cx="40.624833548731125" cy="40.93478700333881" r="0.4" fill="yellow"/>
<circle cx="40.782342431643656" cy="40.95307695926174" r="0.4" fill="yellow"/>
<circle cx="40.61510416500783" cy="40.97034627217585" r="0.4" fill="yellow"/>
<circle cx="40.66458543398797" cy="40.863787704936534" r="0.4" fill="yellow"/>
<circle cx="40.63565679995218" cy="40.941368803868905" r="0.4" fill="yellow"/>
<circle cx="40.62961037719876" cy="40.910431390413045" r="0.4" fill="yellow"/>
<circle cx="40.62945256401515" cy="40.91872800852751" r="0.4" fill="yellow"/>
<circle cx="40.64677282234559" cy="40.87515634506893" r="0.4" fill="yellow"/>
<circle cx="40.63967500441152" cy="40.94794307698293" r="0.4" fill="yellow"/>
<circle cx="40.71502852767435" cy="40.868542606642855" r="0.4" fill="yellow"/>
<circle cx="40.63367740782142" cy="40.937138066224165" r="0.4" fill="yellow"/>
<circle cx="40.63030304742428" cy="40.925813784433" r="0.4" fill="yellow"/>
<circle cx="40.73821887427781" cy="40.898489512327316" r="0.4" fill="yellow"/>
<circle cx="40.664087666213305" cy="40.39756962381031" r="0.4" fill="yellow"/>
<circle cx="40.77668893003713" cy="40.487651095416595" r="0.4" fill="yellow"/>
<circle cx="40.7202472509832" cy="40.40320591559094" r="0.4" fill="yellow"/>
<circle cx="40.73356935654789" cy="40.41027221504381" r="0.4" fill="yellow"/>
<circle cx="40.69342756422877" cy="40.37799373096056" r="0.4" fill="yellow"/>
<circle cx="40.784074280207086" cy="40.41770064017497" r="0.4" fill="yellow"/>
<circle cx="40.748891456542054" cy="40.669911720374785" r="0.4" fill="yellow"/>
<circle cx="40.68011315622637" cy="40.760500193205246" r="0.4" fill="yellow"/>
<circle cx="40.68877181337" cy="40.81628269058009" r="0.4" fill="yellow"/>
<circle cx="40.712420624826834" cy="40.888871447211876" r="0.4" fill="yellow"/>
<circle cx="40.68675518255487" cy="40.8247801941145" r="0.4" fill="yellow"/>
<circle cx="40.78517507547318" cy="40.89321499996673" r="0.4" fill="yellow"/>
<circle cx="40.71511831019215" cy="40.890785090099456" r="0.4" fill="yellow"/>
<circle cx="40.74375817375841" cy="40.90153558562671" r="0.4" fill="yellow"/>
<circle cx="40.79203448816304" cy="40.782923956896425" r="0.4" fill="yellow"/>
<circle cx="40.703231244811896" cy="40.79104319268907" r="0.4" fill="yellow"/>
<circle cx="40.69045516025266" cy="40.86011430002109" r="0.4" fill="yellow"/>
<circle cx="40.73889214482348" cy="40.90073339948253" r="0.4" fill="yellow"/>
<circle cx="40.76159066140115" cy="40.85265251732781" r="0.4" fill="yellow"/>
<circle cx="40.76930036376956" cy="40.97630194992196" r="0.4" fill="yellow"/>
<circle cx="40.73760917772119" cy="40.89818623340462" r="0.4" fill="yellow"/>
<circle cx="40.78440548089705" cy="40.98515468648409" r="0.4" fill="yellow"/>
<circle cx="40.737779099061825" cy="40.89718370838481" r="0.4" fill="yellow"/>
<circle cx="40.73889037987271" cy="40.93054800192858" r="0.4" fill="yellow"/>
<circle cx="40.818121997397306" cy="40.830194636875554" r="0.4" fill="yellow"/>
<circle cx="40.73728157441845" cy="40.900384995714035" r="0.4" fill="yellow"/>
<circle cx="40.74058296774611" cy="40.22840480854969" r="0.4" fill="yellow"/>
<circle cx="40.86916913579268" cy="40.33499145116294" r="0.4" fill="yellow"/>
<circle cx="40.76671252593947" cy="40.32202095943238" r="0.4" fill="yellow"/>
<circle cx="40.781123358604454" cy="40.332606939285874" r="0.4" fill="yellow"/>
<circle cx="40.74835146436092" cy="40.22607142369262" r="0.4" fill="yellow"/>
<circle cx="40.87021863620213" cy="40.320324925388604" r="0.4" fill="yellow"/>
<circle cx="40.76055684168067" cy="40.320841359637015" r="0.4" fill="yellow"/>
<circle cx="40.78336329135946" cy="40.33646595744992" r="0.4" fill="yellow"/>
<circle cx="40.80607541935471" cy="40.34273368133572" r="0.4" fill="yellow"/>
<circle cx="40.73751669613856" cy="40.266828828601504" r="0.4" fill="yellow"/>
<circle cx="40.75754009492925" cy="40.684217159444614" r="0.4" fill="yellow"/>
<circle cx="40.740457270147054" cy="40.75246542588052" r="0.4" fill="yellow"/>
<circle cx="40.76865916946855" cy="40.67472577978496" r="0.4" fill="yellow"/>
<circle cx="40.7750655163254" cy="40.795994427285315" r="0.4" fill="yellow"/>
<circle cx="40.747785441445224" cy="40.769675829567234" r="0.4" fill="yellow"/>
<circle cx="40.810579509168036" cy="40.80464571667467" r="0.4" fill="yellow"/>
<circle cx="40.783545894247794" cy="40.88802895394085" r="0.4" fill="yellow"/>
<circle cx="40.76783850615479" cy="40.978163511033266" r="0.4" fill="yellow"/>
<circle cx="40.74920860705187" cy="40.90509271742229" r="0.4" fill="yellow"/>
<circle cx="40.78478233881085" cy="40.98156901249634" r="0.4" fill="yellow"/>
<circle cx="40.74066367854974" cy="40.92098164335461" r="0.4" fill="yellow"/>
<circle cx="40.73872441924917" cy="40.93113379797655" r="0.4" fill="yellow"/>
<circle cx="40.7756184626133" cy="40.98054493287172" r="0.4" fill="yellow"/>
<circle cx="40.73880655990514" cy="40.93020335520183" r="0.4" fill="yellow"/>
<circle cx="40.79225946836894" cy="40.888503076964234" r="0.4" fill="yellow"/>
<circle cx="40.75192592739746" cy="40.90206203156485" r="0.4" fill="yellow"/>
<circle cx="40.76685304063604" cy="40.53074916076159" r="0.4" fill="yellow"/>
<circle cx="40.7499377290578" cy="40.554456500642374" r="0.4" fill="yellow"/>
<circle cx="40.76186715916315" cy="40.70113158603173" r="0.4" fill="yellow"/>
<circle cx="40.75545380513651" cy="40.73419516219483" r="0.4" fill="yellow"/>
<circle cx="40.784952331083524" cy="40.684313089646466" r="0.4" fill="yellow"/>
<circle cx="40.80305451730176" cy="40.76719443537873" r="0.4" fill="yellow"/>
<circle cx="40.780149802176965" cy="40.177294800888106" r="0.4" fill="yellow"/>
<circle cx="40.817427165067976" cy="40.16460276336919" r="0.4" fill="yellow"/>
<circle cx="40.78424548645286" cy="40.19442913640587" r="0.4" fill="yellow"/>
<circle cx="40.823388071562974" cy="40.18846136720846" r="0.4" fill="yellow"/>
<circle cx="40.86903175752586" cy="40.69478289410741" r="0.4" fill="yellow"/>
<circle cx="40.80728972784383" cy="40.804636858918236" r="0.4" fill="yellow"/>
<circle cx="40.808174311647306" cy="40.72020195973736" r="0.4" fill="yellow"/>
<circle cx="40.795172601686964" cy="40.779338906794315" r="0.4" fill="yellow"/>
<circle cx="40.797877042700044" cy="40.78789338388895" r="0.4" fill="yellow"/>
<circle cx="40.814017613243706" cy="40.8122074803951" r="0.4" fill="yellow"/>
<circle cx="40.83213310527359" cy="40.70113785140583" r="0.4" fill="yellow"/>
<circle cx="40.79334130118315" cy="40.76747040687782" r="0.4" fill="yellow"/>
<circle cx="40.81723924205474" cy="40.6625857771599" r="0.4" fill="yellow"/>
<circle cx="40.868249533619796" cy="40.773187670836506" r="0.4" fill="yellow"/>
<circle cx="40.79870597583464" cy="40.699175653112874" r="0.4" fill="yellow"/>
<circle cx="40.8096895017867" cy="40.745746938136115" r="0.4" fill="yellow"/>
<circle cx="40.803285809625244" cy="40.683038922983705" r="0.4" fill="yellow"/>
<circle cx="40.82234825630709" cy="40.759246621166575" r="0.4" fill="yellow"/>
<circle cx="40.80163797711245" cy="40.73001701629799" r="0.4" fill="yellow"/>
<circle cx="40.92310121230582" cy="40.73225971946042" r="0.4" fill="yellow"/>
<circle cx="40.853640972884556" cy="40.37514733667105" r="0.4" fill="yellow"/>
<circle cx="40.843348859201356" cy="40.38799122656346" r="0.4" fill="yellow"/>
<circle cx="40.84770127034834" cy="40.258320605706764" r="0.4" fill="yellow"/>
<circle cx="40.866766104278895" cy="40.34644899649146" r="0.4" fill="yellow"/>
<circle cx="40.91640842146506" cy="40.23837579754304" r="0.4" fill="yellow"/>
<circle cx="40.85739458376276" cy="40.34010420261053" r="0.4" fill="yellow"/>
<circle cx="40.88652644350172" cy="40.23518748280604" r="0.4" fill="yellow"/>
<circle cx="40.85131171683477" cy="40.33431444112436" r="0.4" fill="yellow"/>
<circle cx="40.89386958238506" cy="40.93856252504519" r="0.4" fill="yellow"/>
<circle cx="40.84475937986208" cy="40.987567701520874" r="0.4" fill="yellow"/>
<circle cx="40.8679490420154" cy="40.2997689820174" r="0.4" fill="yellow"/>
<circle cx="40.86948900947503" cy="40.308783624518824" r="0.4" fill="yellow"/>
<circle cx="40.946659703043544" cy="40.324474854128106" r="0.4" fill="yellow"/>
<circle cx="40.89164689337512" cy="40.35363309276139" r="0.4" fill="yellow"/>
<circle cx="40.891824659939616" cy="40.35720918242325" r="0.4" fill="yellow"/>
<circle cx="40.94945345406002" cy="40.38077160127111" r="0.4" fill="yellow"/>
<circle cx="40.95053856235263" cy="40.31665883847153" r="0.4" fill="yellow"/>
<circle cx="40.92204799481951" cy="40.34743363467331" r="0.4" fill="yellow"/>
<circle cx="40.91732039929698" cy="40.35945581659685" r="0.4" fill="yellow"/>
<circle cx="40.958460773861454" cy="40.448651803437976" r="0.4" fill="yellow"/>
<circle cx="40.91885804995789" cy="40.40637536008957" r="0.4" fill="yellow"/>
<circle cx="40.9433236524568" cy="40.439635828020386" r="0.4" fill="yellow"/>
<circle cx="40.94261740790625" cy="40.3221147048141" r="0.4" fill="yellow"/>
<circle cx="40.91450438919588" cy="40.386676282783284" r="0.4" fill="yellow"/>
<circle cx="40.93224669946659" cy="40.24732492212324" r="0.4" fill="yellow"/>
<circle cx="40.95234973091209" cy="40.31157275475586" r="0.4" fill="yellow"/>
<circle cx="40.92961750905383" cy="40.75286304793657" r="0.4" fill="yellow"/>
<circle cx="40.92856826754642" cy="40.77859716103998" r="0.4" fill="yellow"/>
<circle cx="40.95066354581017" cy="40.32762907385741" r="0.4" fill="yellow"/>
<circle cx="40.95231407534831" cy="40.378109187666446" r="0.4" fill="yellow"/>
<circle cx="40.95256950094116" cy="40.32950533755639" r="0.4" fill="yellow"/>
<circle cx="40.960188613680636" cy="40.36528755025606" r="0.4" fill="yellow"/>
<circle cx="40.960413775064154" cy="40.311712801213424" r="0.4" fill="yellow"/>
<circle cx="41.0420957353164" cy="40.32862880798337" r="0.4" fill="yellow"/>
<circle cx="40.953706693362285" cy="40.32507433248665" r="0.4" fill="yellow"/>
<circle cx="40.98693308660192" cy="40.38321826435191" r="0.4" fill="yellow"/>
<circle cx="40.98141797199899" cy="40.29576546011518" r="0.4" fill="yellow"/>
<circle cx="40.961498799418045" cy="40.310282111984804" r="0.4" fill="yellow"/>
</svg>
