<svg version="1.1" baseProfile="full" width="300" height="200" viewBox="0 0 4 4" xmlns="http://www.w3.org/2000/svg">
<circle cx="3.123671674459917" cy="2.8015152381282666" r="0.01" fill="yellow"/>
<circle cx="1.6940615612279601" cy="2.4796267259170164" r="0.01" fill="yellow"/>
<circle cx="2.5885487631367403" cy="2.0900891265237944" r="0.01" fill="yellow"/>
<circle cx="1.7343903541593306" cy="2.407606312896969" r="0.01" fill="yellow"/>
<circle cx="2.467511704930555" cy="1.8777061186123551" r="0.01" fill="yellow"/>
<circle cx="1.720354329803011" cy="2.3767387702198093" r="0.01" fill="yellow"/>
<circle cx="2.123844921755687" cy="2.6604390300188654" r="0.01" fill="yellow"/>
<circle cx="2.368631587872596" cy="2.6022240436556316" r="0.01" fill="yellow"/>
<circle cx="3.007450848587691" cy="2.4090219813004525" r="0.01" fill="yellow"/>
<circle cx="2.86709546890655" cy="2.244728400818957" r="0.01" fill="yellow"/>
<circle cx="1.6940615612279601" cy="2.4796267259170164" r="0.01" fill="red"/>
<circle cx="3.123671674459917" cy="2.8015152381282666" r="0.01" fill="red"/>
<circle cx="1.7343903541593306" cy="2.407606312896969" r="0.01" fill="red"/>
<circle cx="2.5885487631367403" cy="2.090089126523794" r="0.01" fill="red"/>
<circle cx="1.720354329803011" cy="2.3767387702198093" r="0.01" fill="red"/>
<circle cx="2.467511704930555" cy="1.8777061186123551" r="0.01" fill="red"/>
<circle cx="2.368631587872596" cy="2.6022240436556316" r="0.01" fill="red"/>
<circle cx="2.1238449217556874" cy="2.6604390300188654" r="0.01" fill="red"/>
<circle cx="2.86709546890655" cy="2.244728400818957" r="0.01" fill="red"/>
<circle cx="3.007450848587691" cy="2.4090219813004525" r="0.01" fill="red"/>
</svg>
