<svg xmlns="http://www.w3.org/2000/svg" xmlns:xlink="http://www.w3.org/1999/xlink">
<circle cx="79.06201055864075" cy="30.373911760547056" r="0.613683407731343"/>
<circle cx="76.86146244306241" cy="48.51047444725487" r="2.5424882863230818"/>
<circle cx="34.69372688403285" cy="83.26282074886552" r="2.515686745098435"/>
<circle cx="77.53045538972633" cy="81.49408778969523" r="0.5627124650767684"/>
<circle cx="86.42789890723861" cy="99.78410346016501" r="2.7847019215278697"/>
<circle cx="7.821893289904402" cy="82.6017394119966" r="1.136522757343335"/>
<circle cx="49.368252377599084" cy="56.039606950931834" r="0.27082531885108174"/>
<circle cx="87.25152409874546" cy="70.94226769823952" r="4.514313311203947"/>
<circle cx="95.98307608577319" cy="70.70125198124704" r="2.2370360620915357"/>
<circle cx="71.28987028659346" cy="46.32405350381361" r="1.1441956659559216"/>
<circle cx="33.60804180574956" cy="46.01862646998188" r="4.629042151099475"/>
<circle cx="30.573816032771905" cy="53.740394807841696" r="3.6228115682901896"/>
<circle cx="60.55268748432937" cy="62.65454713617164" r="4.894459565797433"/>
<circle cx="3.652412351195955" cy="66.46855529672816" r="4.647554784951836"/>
<circle cx="13.12073748100947" cy="93.7654678746552" r="4.872221811550682"/>
<circle cx="47.63617682623546" cy="21.4469248159457" r="0.8383713578300822"/>
<circle cx="79.46412675790232" cy="1.8160042472480042" r="1.5409020835266107"/>
<circle cx="59.5813835504219" cy="27.60732446538747" r="0.6759019253855203"/>
<circle cx="92.61021093937795" cy="89.99774962931687" r="3.635232017986123"/>
<circle cx="18.009646153841587" cy="94.68743618103089" r="0.583511556583205"/>
<circle cx="78.40184164116559" cy="35.214623834966716" r="1.8333793123353326"/>
<circle cx="73.08215994912551" cy="11.557489655230334" r="2.5806701720230656"/>
<circle cx="0.026347476938159975" cy="32.60893711835101" r="1.7562386425479377"/>
<circle cx="71.98090063968513" cy="47.54841378637206" r="3.6203413642012556"/>
<circle cx="31.863569099721513" cy="92.64068360297455" r="3.10236079846363"/>
<circle cx="35.217496554067104" cy="53.88078165864664" r="2.718391248086439"/>
<circle cx="68.6246397570827" cy="69.05175811771575" r="0.5146582403759131"/>
<circle cx="58.00728911894277" cy="5.079908877188267" r="0.16112337885820172"/>
<circle cx="73.134630859395" cy="17.814490521397087" r="4.711751173072409"/>
<circle cx="90.6864460949587" cy="96.8019009833295" r="2.4693797422523063"/>
<circle cx="4.842056297181275" cy="34.888897466238" r="1.115673768210879"/>
<circle cx="63.45984427323367" cy="16.7164513073791" r="1.2558039739298"/>
<circle cx="29.757707234566922" cy="3.342546163194171" r="3.4779076018316775"/>
<circle cx="37.15406807703251" cy="29.795428657063873" r="2.659983048253865"/>
<circle cx="54.56952516660928" cy="13.906505653224865" r="2.802141407724515"/>
<circle cx="6.2223441630189" cy="97.34546880903378" r="0.9429525779818837"/>
<circle cx="28.80629260922406" cy="62.80915538137651" r="1.7943083747248822"/>
<circle cx="79.18170908107147" cy="7.974145848968883" r="4.927569398745955"/>
<circle cx="1.341979237137092" cy="72.88370581313927" r="4.6216925438017284"/>
<circle cx="72.6028061935477" cy="86.82878505621264" r="1.6197114653979856"/>
<circle cx="35.32466876034736" cy="72.73084535722084" r="0.8255275357165159"/>
<circle cx="74.39799521690891" cy="9.599836961085407" r="2.8031871520985736"/>
<circle cx="43.10451748482734" cy="37.91249909761787" r="1.6249336365012013"/>
<circle cx="46.512641972580525" cy="86.58764682557934" r="4.746326475345417"/>
<circle cx="75.23123972981527" cy="56.39133016367971" r="2.2495314102572634"/>
<circle cx="64.42636803748071" cy="57.70864723994803" r="3.8486745214031344"/>
<circle cx="79.15630453998295" cy="36.631256577288184" r="3.7228945337314734"/>
<circle cx="8.869722971976547" cy="60.48793013069393" r="3.2544753863694673"/>
<circle cx="46.30322848010935" cy="14.260221529894846" r="3.3018057358102455"/>
<circle cx="67.92173112971291" cy="57.71565871016631" r="1.2569099531743322"/>
</svg>
