<svg width="500" height="500" viewBox="-2 -2 2 2" xmlns="http://www.w3.org/2000/svg" xmlns:xlink="http://www.w3.org/1999/xlink">
<circle cx="1.3270513873018466" cy="1.0847551576932708" r="0.01" fill="yellow"/>
<circle cx="0.1078176510601706" cy="-0.21608260642032118" r="0.01" fill="yellow"/>
<circle cx="-0.12330765642336275" cy="0.7770322796773295" r="0.01" fill="yellow"/>
<circle cx="0.29017719374829665" cy="1.2356832137756717" r="0.01" fill="yellow"/>
<circle cx="1.2877819066377199" cy="0.14587710801649179" r="0.01" fill="yellow"/>
<circle cx="-0.128430423887819" cy="-0.06738645879521775" r="0.01" fill="yellow"/>
<circle cx="1.168943303542795" cy="-0.3149398242671915" r="0.01" fill="yellow"/>
<circle cx="-0.14047128291962185" cy="0.16223601432110435" r="0.01" fill="yellow"/>
<circle cx="0.459397541021368" cy="0.793038934265788" r="0.01" fill="yellow"/>
<circle cx="0.08973218752116893" cy="0.6150510605664743" r="0.01" fill="yellow"/>
<circle cx="0.4585537255647588" cy="1.0762446541764668" r="0.01" fill="yellow"/>
<circle cx="-0.052197180932798765" cy="0.6880736419394987" r="0.01" fill="yellow"/>
<circle cx="0.021544553767952612" cy="0.5437889060908534" r="0.01" fill="yellow"/>
<circle cx="0.636530412052664" cy="0.7992356014971813" r="0.01" fill="yellow"/>
<circle cx="0.4746812472843796" cy="1.5948992095886183" r="0.01" fill="yellow"/>
<circle cx="1.4222872858132531" cy="0.5066633151099879" r="0.01" fill="yellow"/>
<circle cx="0.028911307718278545" cy="1.0279161059706776" r="0.01" fill="yellow"/>
<circle cx="1.5251472364115723" cy="0.7953300057853675" r="0.01" fill="yellow"/>
<circle cx="0.10697590610068974" cy="1.25600451399063" r="0.01" fill="yellow"/>
<circle cx="0.0717251752703757" cy="0.6197887612461492" r="0.01" fill="yellow"/>
<circle cx="0.07811816562203722" cy="0.6042375727833078" r="0.01" fill="yellow"/>
<circle cx="1.2531851993845238" cy="0.31262934564496014" r="0.01" fill="yellow"/>
<circle cx="0.02489478588371831" cy="1.001768571087141" r="0.01" fill="yellow"/>
<circle cx="0.173605962516034" cy="0.4400884767662814" r="0.01" fill="yellow"/>
<circle cx="0.3838350773880423" cy="1.1761294004262441" r="0.01" fill="yellow"/>
<circle cx="0.1148911970157161" cy="0.6102211997094874" r="0.01" fill="yellow"/>
<circle cx="0.11387621193710484" cy="0.6360717009382157" r="0.01" fill="yellow"/>
<circle cx="1.2725271203250965" cy="0.24371451416954026" r="0.01" fill="yellow"/>
<circle cx="0.3157244516251823" cy="1.1196315735262679" r="0.01" fill="yellow"/>
<circle cx="0.14430141618062525" cy="0.4517062399088019" r="0.01" fill="yellow"/>
<circle cx="1.381924435875027" cy="0.4468629853560869" r="0.01" fill="yellow"/>
<circle cx="0.13022761846318487" cy="0.5032243888940224" r="0.01" fill="yellow"/>
<circle cx="1.4217057537663287" cy="0.502911635594312" r="0.01" fill="yellow"/>
<circle cx="0.2283257152262237" cy="-0.2594971005811486" r="0.01" fill="yellow"/>
<circle cx="1.5633356019224451" cy="0.20603983002631387" r="0.01" fill="yellow"/>
<circle cx="0.26956788213447425" cy="-0.331955640694264" r="0.01" fill="yellow"/>
<circle cx="0.7998622629542889" cy="0.76521249275497" r="0.01" fill="yellow"/>
<circle cx="0.6650686738407166" cy="-0.6270878395881964" r="0.01" fill="yellow"/>
<circle cx="0.6352496431933299" cy="0.7296388550847952" r="0.01" fill="yellow"/>
<circle cx="0.256047294275449" cy="0.4223792232328365" r="0.01" fill="yellow"/>
<circle cx="1.4207328351967923" cy="0.5041167159881276" r="0.01" fill="yellow"/>
<circle cx="0.2298362585427215" cy="0.3746175012257775" r="0.01" fill="yellow"/>
<circle cx="1.402345188878447" cy="0.5259331128170053" r="0.01" fill="yellow"/>
<circle cx="0.2043721872350982" cy="0.3175647627515585" r="0.01" fill="yellow"/>
<circle cx="0.7159454720458782" cy="1.5670394563426453" r="0.01" fill="yellow"/>
<circle cx="1.4080248410446614" cy="0.433070997786527" r="0.01" fill="yellow"/>
<circle cx="0.34710558487132936" cy="1.2630491998040525" r="0.01" fill="yellow"/>
<circle cx="1.5678258533104878" cy="0.669848811388541" r="0.01" fill="yellow"/>
<circle cx="0.32395084190245627" cy="1.219226653158495" r="0.01" fill="yellow"/>
<circle cx="0.31634173891373385" cy="0.6441656542348491" r="0.01" fill="yellow"/>
<circle cx="0.2814875484277971" cy="0.7402454939767819" r="0.01" fill="yellow"/>
<circle cx="1.250644112532863" cy="0.32007226678898804" r="0.01" fill="yellow"/>
<circle cx="0.28553934761661875" cy="1.120742192725582" r="0.01" fill="yellow"/>
<circle cx="0.44182085114211317" cy="0.45666983361765945" r="0.01" fill="yellow"/>
<circle cx="1.0999226740043293" cy="1.5839310863553524" r="0.01" fill="yellow"/>
<circle cx="1.2824709463352184" cy="0.3377318754114579" r="0.01" fill="yellow"/>
<circle cx="0.2735229236690032" cy="1.0755176568471918" r="0.01" fill="yellow"/>
<circle cx="1.3612583256682447" cy="0.392065363026382" r="0.01" fill="yellow"/>
<circle cx="0.3623557406854233" cy="0.5588273792460161" r="0.01" fill="yellow"/>
<circle cx="1.445330940730814" cy="0.4718819086687822" r="0.01" fill="yellow"/>
<circle cx="0.49006870922156687" cy="0.96095877146238" r="0.01" fill="yellow"/>
<circle cx="0.33705933248184705" cy="0.65605197888574" r="0.01" fill="yellow"/>
<circle cx="0.3585769739634593" cy="0.7693236966334709" r="0.01" fill="yellow"/>
<circle cx="1.1616218323828114" cy="0.4946833155536199" r="0.01" fill="yellow"/>
<circle cx="0.550016134820719" cy="1.002501518774653" r="0.01" fill="yellow"/>
<circle cx="0.38614391216461164" cy="0.4350483082706434" r="0.01" fill="yellow"/>
<circle cx="0.34654229871892106" cy="0.5424408161826053" r="0.01" fill="yellow"/>
<circle cx="1.180767584863211" cy="0.695538551816121" r="0.01" fill="yellow"/>
<circle cx="0.9260530966828369" cy="0.24333648506683112" r="0.01" fill="yellow"/>
<circle cx="0.3378257062742052" cy="0.60067725168873" r="0.01" fill="yellow"/>
<circle cx="0.1078176510601706" cy="-0.21608260642032118" r="0.01" fill="red"/>
<circle cx="1.3270513873018466" cy="1.0847551576932708" r="0.01" fill="red"/>
<circle cx="0.29017719374829676" cy="1.2356832137756717" r="0.01" fill="red"/>
<circle cx="-0.1233076564233627" cy="0.7770322796773295" r="0.01" fill="red"/>
<circle cx="-0.128430423887819" cy="-0.06738645879521787" r="0.01" fill="red"/>
<circle cx="1.2877819066377199" cy="0.14587710801649167" r="0.01" fill="red"/>
<circle cx="0.0897321875211688" cy="0.6150510605664741" r="0.01" fill="red"/>
<circle cx="0.45939754102136815" cy="0.793038934265788" r="0.01" fill="red"/>
<circle cx="-0.14047128291962185" cy="0.16223601432110427" r="0.01" fill="red"/>
<circle cx="1.168943303542795" cy="-0.3149398242671916" r="0.01" fill="red"/>
<circle cx="-0.052197180932798765" cy="0.6880736419394987" r="0.01" fill="red"/>
<circle cx="0.4585537255647588" cy="1.0762446541764668" r="0.01" fill="red"/>
<circle cx="0.636530412052664" cy="0.7992356014971813" r="0.01" fill="red"/>
<circle cx="0.021544553767952612" cy="0.5437889060908534" r="0.01" fill="red"/>
<circle cx="1.4222872858132531" cy="0.5066633151099879" r="0.01" fill="red"/>
<circle cx="0.4746812472843796" cy="1.5948992095886183" r="0.01" fill="red"/>
<circle cx="0.07172517527037578" cy="0.619788761246149" r="0.01" fill="red"/>
<circle cx="0.10697590610068983" cy="1.2560045139906302" r="0.01" fill="red"/>
<circle cx="1.5251472364115723" cy="0.7953300057853674" r="0.01" fill="red"/>
<circle cx="0.028911307718278545" cy="1.0279161059706776" r="0.01" fill="red"/>
<circle cx="0.173605962516034" cy="0.4400884767662814" r="0.01" fill="red"/>
<circle cx="0.024894785883718337" cy="1.001768571087141" r="0.01" fill="red"/>
<circle cx="1.2531851993845238" cy="0.31262934564496003" r="0.01" fill="red"/>
<circle cx="0.0781181656220371" cy="0.6042375727833077" r="0.01" fill="red"/>
<circle cx="0.11489119701571607" cy="0.6102211997094875" r="0.01" fill="red"/>
<circle cx="0.38383507738804223" cy="1.176129400426244" r="0.01" fill="red"/>
<circle cx="0.14430141618062514" cy="0.4517062399088021" r="0.01" fill="red"/>
<circle cx="0.31572445162518215" cy="1.1196315735262679" r="0.01" fill="red"/>
<circle cx="1.2725271203250965" cy="0.2437145141695402" r="0.01" fill="red"/>
<circle cx="0.11387621193710484" cy="0.6360717009382157" r="0.01" fill="red"/>
<circle cx="0.13022761846318487" cy="0.5032243888940223" r="0.01" fill="red"/>
<circle cx="1.381924435875027" cy="0.4468629853560868" r="0.01" fill="red"/>
<circle cx="0.22832571522622358" cy="-0.2594971005811486" r="0.01" fill="red"/>
<circle cx="1.4217057537663287" cy="0.502911635594312" r="0.01" fill="red"/>
<circle cx="0.26956788213447413" cy="-0.331955640694264" r="0.01" fill="red"/>
<circle cx="1.5633356019224451" cy="0.20603983002631387" r="0.01" fill="red"/>
<circle cx="0.25604729427544903" cy="0.4223792232328366" r="0.01" fill="red"/>
<circle cx="0.6352496431933297" cy="0.7296388550847951" r="0.01" fill="red"/>
<circle cx="0.6650686738407166" cy="-0.6270878395881964" r="0.01" fill="red"/>
<circle cx="0.7998622629542889" cy="0.76521249275497" r="0.01" fill="red"/>
<circle cx="0.2298362585427216" cy="0.3746175012257774" r="0.01" fill="red"/>
<circle cx="1.4207328351967923" cy="0.5041167159881275" r="0.01" fill="red"/>
<circle cx="0.2043721872350982" cy="0.3175647627515584" r="0.01" fill="red"/>
<circle cx="1.402345188878447" cy="0.5259331128170052" r="0.01" fill="red"/>
<circle cx="1.4080248410446612" cy="0.433070997786527" r="0.01" fill="red"/>
<circle cx="0.715945472045878" cy="1.5670394563426453" r="0.01" fill="red"/>
<circle cx="0.3163417389137339" cy="0.6441656542348491" r="0.01" fill="red"/>
<circle cx="0.3239508419024563" cy="1.219226653158495" r="0.01" fill="red"/>
<circle cx="1.5678258533104878" cy="0.669848811388541" r="0.01" fill="red"/>
<circle cx="0.34710558487132936" cy="1.2630491998040525" r="0.01" fill="red"/>
<circle cx="0.4418208511421131" cy="0.4566698336176595" r="0.01" fill="red"/>
<circle cx="0.2855393476166187" cy="1.120742192725582" r="0.01" fill="red"/>
<circle cx="1.250644112532863" cy="0.32007226678898804" r="0.01" fill="red"/>
<circle cx="0.2814875484277971" cy="0.7402454939767819" r="0.01" fill="red"/>
<circle cx="1.2824709463352184" cy="0.3377318754114579" r="0.01" fill="red"/>
<circle cx="1.0999226740043293" cy="1.5839310863553524" r="0.01" fill="red"/>
<circle cx="1.445330940730814" cy="0.4718819086687822" r="0.01" fill="red"/>
<circle cx="0.3623557406854233" cy="0.5588273792460161" r="0.01" fill="red"/>
<circle cx="1.3612583256682447" cy="0.3920653630263819" r="0.01" fill="red"/>
<circle cx="0.2735229236690032" cy="1.0755176568471916" r="0.01" fill="red"/>
<circle cx="0.3370593324818471" cy="0.6560519788857401" r="0.01" fill="red"/>
<circle cx="0.4900687092215668" cy="0.9609587714623798" r="0.01" fill="red"/>
<circle cx="0.38614391216461164" cy="0.4350483082706434" r="0.01" fill="red"/>
<circle cx="0.550016134820719" cy="1.002501518774653" r="0.01" fill="red"/>
<circle cx="1.1616218323828114" cy="0.4946833155536199" r="0.01" fill="red"/>
<circle cx="0.35857697396345933" cy="0.7693236966334709" r="0.01" fill="red"/>
<circle cx="1.180767584863211" cy="0.695538551816121" r="0.01" fill="red"/>
<circle cx="0.34654229871892106" cy="0.5424408161826053" r="0.01" fill="red"/>
<circle cx="0.3378257062742051" cy="0.6006772516887301" r="0.01" fill="red"/>
<circle cx="0.9260530966828369" cy="0.24333648506683106" r="0.01" fill="red"/>
</svg>
